<svg id="Layer_1" data-name="Layer 1" xmlns="http://www.w3.org/2000/svg" viewBox="0 0 1920 1080"><defs></defs><rect class="cls-1" width="1920" height="1080"></rect><path class="cls-2" d="M951.69,545.05H936.77l-6.83-13.33-16.32-32-16.31,32-6.83,13.33H875.55l6.83-13.33,31.24-61.33,31.25,61.33Z"></path><path class="cls-2" d="M1030.07,507.72a24,24,0,0,0,24,24h24v-14.3h-24V504.09h37.33v41h-37.33a37.33,37.33,0,0,1,0-74.66h37.33v13.34h-37.33A24,24,0,0,0,1030.07,507.72Z"></path><path class="cls-2" d="M1174,490.55v6.93h48v13.33h-48v14.08a6.88,6.88,0,0,0,6.82,6.83h54.5v13.33h-54.5a20.12,20.12,0,0,1-20-20.16V490.55a20.12,20.12,0,0,1,20-20.16h54.5v13.34h-54.5A6.87,6.87,0,0,0,1174,490.55Z"></path><path class="cls-2" d="M1366.19,531.82v13.33h-37.86a23.19,23.19,0,0,1-10.45-2.45,23.7,23.7,0,0,1-10.77-10.88,23.19,23.19,0,0,1-2.45-10.45V470.5H1318v52.15a10.65,10.65,0,0,0,9.06,9.07Z"></path><path class="cls-2" d="M807.25,481.72l-.2-.4a37.28,37.28,0,0,0-26.43-10.93H707.83v71.33h24.84V495.44h48.14a12.52,12.52,0,0,1,9,3.57,13.16,13.16,0,0,1,3.77,9.15V540A12.6,12.6,0,0,1,786,551.48v.2a11.54,11.54,0,0,1-5.17,1.2H622.9c0,.18-.07.37-.09.56l-12.18,23.88h40.8l3.75,7.36,1.94,3.8,10.78,21h27.82l-10.77-21-2-3.8-3.75-7.36H784.39v-.2h1.19a33,33,0,0,0,10.74-3A37.67,37.67,0,0,0,818.18,540v-31.8A37.25,37.25,0,0,0,807.25,481.72Z"></path><path class="cls-3" d="M945.81,582.93a7.73,7.73,0,0,1,2.28,5.5,7.84,7.84,0,0,1-4.55,7.11,6.86,6.86,0,0,1-2.23.62h-.25v0H927.2v13.32H922V580.57h18.24a7.76,7.76,0,0,1,5.5,2.27Zm-4.42,7.9a2.64,2.64,0,0,0,1.57-2.4,2.72,2.72,0,0,0-.79-1.9,2.56,2.56,0,0,0-1.86-.75H927.2v5.34h13.11a2.52,2.52,0,0,0,1.08-.25Z"></path><path class="cls-3" d="M996.46,609.52h-5.8L988,604.35l-6.33-12.41-6.33,12.41-2.65,5.17h-5.79l2.65-5.17,12.12-23.78,12.12,23.78Z"></path><path class="cls-3" d="M1045.07,604.44l2.64,5.17h-5.79l-2.64-5.17-2.77-5.42-.13-.25a5.12,5.12,0,0,0-4.38-2.48h-5.17v13.32h-5.17v-29h18.28a7.77,7.77,0,0,1,7.77,7.78,7.84,7.84,0,0,1-4.54,7.11,6.91,6.91,0,0,1-2.24.62Zm-5.13-13.32a2.47,2.47,0,0,0,1.07-.25,2.62,2.62,0,0,0,1.58-2.4,2.72,2.72,0,0,0-.79-1.9,2.6,2.6,0,0,0-1.86-.75h-13.11v5.34Z"></path><path class="cls-3" d="M1102.2,580.61v5.17h-11.87v23.78h-5.17V585.78h-11.87v-5.17Z"></path><path class="cls-3" d="M1158.1,580.61v28.95l-5.17-4-18.61-14.35v18.32h-5.17V580.69l5.17,4L1152.93,599V580.57Z"></path><path class="cls-3" d="M1190.17,588.39v2.69h18.61v5.17h-18.61v5.45a2.67,2.67,0,0,0,2.65,2.65H1214v5.17h-21.13a7.8,7.8,0,0,1-7.78-7.82V588.39a7.8,7.8,0,0,1,7.78-7.82H1214v5.17h-21.13A2.67,2.67,0,0,0,1190.17,588.39Z"></path><path class="cls-3" d="M1264.22,604.44l2.65,5.17h-5.79l-2.65-5.17-2.77-5.42-.13-.25a5.1,5.1,0,0,0-4.38-2.48H1246v13.32h-5.17v-29h18.28a7.78,7.78,0,0,1,7.78,7.78,7.84,7.84,0,0,1-4.55,7.11,6.85,6.85,0,0,1-2.24.62Zm-5.13-13.32a2.48,2.48,0,0,0,1.08-.25,2.63,2.63,0,0,0,1.57-2.4,2.72,2.72,0,0,0-.79-1.9,2.6,2.6,0,0,0-1.86-.75H1246v5.34Z"></path><path class="cls-3" d="M1316,588.59v-.16a2.67,2.67,0,0,0-2.65-2.65h-11.74a2.67,2.67,0,0,0-2.65,2.65v.16a2.67,2.67,0,0,0,2.65,2.65h10.42a9.07,9.07,0,0,1,6.74,3c.12.12.21.25.33.37a9.14,9.14,0,0,1-7.07,14.93H1303a9.14,9.14,0,0,1-9.14-9.14H1299a4,4,0,0,0,4,4h9.06a4,4,0,1,0,0-7.94h-10.42a7.74,7.74,0,0,1-5.42-2.19,6.58,6.58,0,0,1-1-1.24,7.68,7.68,0,0,1-1.37-4.43v-.16a7.8,7.8,0,0,1,7.78-7.82h11.74a7.84,7.84,0,0,1,7.82,7.82v.16Z"></path><rect class="cls-3" x="707.83" y="588.48" width="24.84" height="21.04"></rect><polygon class="cls-3" points="628.83 533.02 633.27 541.72 661.11 541.72 624.77 470.39 599.91 519.17 566.53 584.68 553.81 609.52 581.64 609.52 594.36 584.68 624.77 525.05 628.83 533.02"></polygon><rect class="cls-3" x="848.86" y="466.69" width="3.14" height="146.62"></rect></svg>