<svg id="Layer_1" data-name="Layer 1" xmlns="http://www.w3.org/2000/svg" viewBox="0 0 1080 1080"><defs></defs><rect class="cls-1" width="1080" height="1080"></rect><rect class="cls-2" x="556.76" y="622.9" width="42.45" height="35.95"></rect><polygon class="cls-2" points="421.79 528.14 429.37 543 476.94 543 414.85 421.15 372.39 504.49 315.36 616.4 293.62 658.85 341.16 658.85 362.89 616.4 414.85 514.53 421.79 528.14"></polygon><path class="cls-3" d="M726.62,440.5l-.34-.67a63.64,63.64,0,0,0-45.16-18.68H556.76V543H599.2V463.94h82.25a21.36,21.36,0,0,1,15.28,6.11,22.39,22.39,0,0,1,6.45,15.62V540a21.55,21.55,0,0,1-12.9,19.69V560a19.79,19.79,0,0,1-8.83,2H411.66c0,.32-.11.64-.15,1L390.7,603.84h69.7l6.4,12.56,3.33,6.5,18.41,36h47.54l-18.41-36-3.33-6.5-6.4-12.56H687.56v-.34h2a56.65,56.65,0,0,0,18.34-5.1A64.35,64.35,0,0,0,745.29,540V485.67A63.68,63.68,0,0,0,726.62,440.5Z"></path></svg>